<svg width="5989" height="1589" viewBox="0 0 5989 1589" fill="none" xmlns="http://www.w3.org/2000/svg">
<mask id="mask0_535_2" style="mask-type:luminance" maskUnits="userSpaceOnUse" x="1" y="1" width="5987" height="1226">
<path d="M1.00391 613.564C1.00391 275.285 300.049 1 669.192 1H5319.3C5688.27 1 5987.49 275.285 5987.49 613.564C5987.49 952.017 5688.45 1226.3 5319.3 1226.3H669.192C300.049 1226.48 1.00391 951.842 1.00391 613.564Z" fill="white"/>
</mask>
<g mask="url(#mask0_535_2)">
<path d="M1.00391 1H5987.49V1226.65H1.00391V1Z" fill="#132F63"/>
<path d="M2994.22 1225.78C4645.23 1225.78 5983.63 951.758 5983.63 613.737C5983.63 275.717 4645.23 1.69707 2994.22 1.69707C1343.22 1.69707 4.81641 275.717 4.81641 613.737C4.81641 951.758 1343.22 1225.78 2994.22 1225.78Z" fill="#0C315A"/>
<path d="M22.2852 613.575C22.2852 277.564 1352.73 5.19662 2993.91 5.19662C4635.08 5.19662 5965.88 277.564 5965.88 613.575C5965.88 949.587 4635.43 1222.13 2994.26 1222.13C1353.08 1222.13 22.2852 949.762 22.2852 613.575Z" fill="#0B315B"/>
<path d="M40.3789 613.553C40.3789 279.808 1362.8 8.83667 2994.22 8.83667C4625.63 8.83667 5948.05 279.634 5948.05 613.553C5948.05 947.473 4625.63 1218.44 2994.22 1218.44C1362.8 1218.44 40.3789 947.647 40.3789 613.553Z" fill="#0B325C"/>
<path d="M2994.25 1214.8C4615.78 1214.8 5930.29 945.701 5930.29 613.748C5930.29 281.794 4615.78 12.6927 2994.25 12.6927C1372.71 12.6927 58.1953 281.794 58.1953 613.748C58.1953 945.701 1372.71 1214.8 2994.25 1214.8Z" fill="#0B335D"/>
<path d="M76.0039 613.562C76.0039 283.653 1382.56 15.297 2994.27 15.297C4605.97 15.297 5912.53 282.781 5912.53 613.562C5912.53 944.343 4605.97 1211.83 2994.27 1211.83C1382.56 1211.83 76.0039 943.645 76.0039 613.562Z" fill="#0C335E"/>
<path d="M93.7578 613.578C93.7578 285.761 1392.29 20.7179 2994.24 20.7179C4596.18 20.7179 5894.71 286.633 5894.71 613.578C5894.71 940.522 4596.18 1206.44 2994.24 1206.44C1392.29 1206.44 93.7578 941.045 93.7578 613.578Z" fill="#0C335E"/>
<path d="M2994.27 1203.96C4586.43 1203.96 5877.13 939.704 5877.13 613.721C5877.13 287.738 4586.43 23.4768 2994.27 23.4768C1402.1 23.4768 111.398 287.738 111.398 613.721C111.398 939.704 1402.1 1203.96 2994.27 1203.96Z" fill="#0C345F"/>
<path d="M129.152 613.559C129.152 289.23 1411.82 27.6743 2994.23 27.6743C4576.65 27.6743 5859.31 289.23 5859.31 613.559C5859.31 937.888 4576.65 1200.14 2994.23 1200.14C1411.82 1200.14 129.152 937.54 129.152 613.559Z" fill="#0D3460"/>
<path d="M2994.26 1196.66C4566.77 1196.66 5841.55 935.676 5841.55 613.738C5841.55 291.8 4566.77 30.8174 2994.26 30.8174C1421.74 30.8174 146.961 291.8 146.961 613.738C146.961 935.676 1421.74 1196.66 2994.26 1196.66Z" fill="#0D3560"/>
<path d="M2994.22 1193C4556.92 1193 5823.73 933.659 5823.73 613.744C5823.73 293.828 4556.92 34.485 2994.22 34.485C1431.53 34.485 164.715 293.828 164.715 613.744C164.715 933.659 1431.53 1193 2994.22 1193Z" fill="#0E3562"/>
<path d="M182.527 613.58C182.527 295.703 1441.31 38.1579 2994.25 38.1579C4547.19 38.1579 5805.98 295.877 5805.98 613.58C5805.98 931.283 4547.19 1189 2994.25 1189C1441.31 1189 182.527 931.632 182.527 613.58Z" fill="#0F3663"/>
<path d="M200.336 613.565C200.336 297.78 1451.1 41.6299 2994.27 41.6299C4537.45 41.6299 5788.21 297.606 5788.21 613.565C5788.21 929.525 4537.28 1185.67 2994.27 1185.67C1451.27 1185.67 200.336 929.699 200.336 613.565Z" fill="#103664"/>
<path d="M2994.25 1182.02C4527.57 1182.02 5770.57 927.592 5770.57 613.743C5770.57 299.895 4527.57 45.47 2994.25 45.47C1460.93 45.47 217.922 299.895 217.922 613.743C217.922 927.592 1460.93 1182.02 2994.25 1182.02Z" fill="#103665"/>
<path d="M2994.27 1178.54C4517.77 1178.54 5752.81 925.678 5752.81 613.755C5752.81 301.833 4517.77 48.9695 2994.27 48.9695C1470.77 48.9695 235.73 301.833 235.73 613.755C235.73 925.678 1470.77 1178.54 2994.27 1178.54Z" fill="#0F3765"/>
<path d="M2994.24 1174.86C4507.92 1174.86 5734.99 923.635 5734.99 613.735C5734.99 303.834 4507.92 52.6105 2994.24 52.6105C1480.56 52.6105 253.484 303.834 253.484 613.735C253.484 923.635 1480.56 1174.86 2994.24 1174.86Z" fill="#103766"/>
<path d="M2994.26 1171.21C4498.12 1171.21 5717.23 921.622 5717.23 613.744C5717.23 305.866 4498.12 56.2816 2994.26 56.2816C1490.41 56.2816 271.293 305.866 271.293 613.744C271.293 921.622 1490.41 1171.21 2994.26 1171.21Z" fill="#103867"/>
<path d="M2994.23 1167.52C4488.26 1167.52 5699.41 919.58 5699.41 613.724C5699.41 307.868 4488.26 59.9234 2994.23 59.9234C1500.2 59.9234 289.047 307.868 289.047 613.724C289.047 919.58 1500.2 1167.52 2994.23 1167.52Z" fill="#113868"/>
<path d="M2994.26 1163.89C4478.47 1163.89 5681.65 917.583 5681.65 613.749C5681.65 309.916 4478.47 63.6106 2994.26 63.6106C1510.05 63.6106 306.859 309.916 306.859 613.749C306.859 917.583 1510.05 1163.89 2994.26 1163.89Z" fill="#113868"/>
<path d="M2994.23 1160.22C4468.61 1160.22 5663.84 915.552 5663.84 613.741C5663.84 311.93 4468.61 67.264 2994.23 67.264C1519.84 67.264 324.613 311.93 324.613 613.741C324.613 915.552 1519.84 1160.22 2994.23 1160.22Z" fill="#113869"/>
<path d="M342.422 613.565C342.422 314.519 1529.71 70.7493 2994.25 70.7493C4458.79 70.7493 5646.08 313.822 5646.08 613.565C5646.08 913.308 4458.96 1157.08 2994.25 1157.08C1529.54 1157.08 342.422 913.482 342.422 613.565Z" fill="#12396B"/>
<path d="M2994.27 1152.9C4449.02 1152.9 5628.32 911.511 5628.32 613.745C5628.32 315.978 4449.02 74.5912 2994.27 74.5912C1539.53 74.5912 360.234 315.978 360.234 613.745C360.234 911.511 1539.53 1152.9 2994.27 1152.9Z" fill="#123A6C"/>
<path d="M378.672 613.567C378.672 317.137 1549.92 78.0756 2994.23 78.0756C4438.54 78.0756 5609.79 317.835 5609.79 613.567C5609.79 909.3 4438.54 1149.23 2994.23 1149.23C1549.92 1149.23 378.672 909.474 378.672 613.567Z" fill="#123A6C"/>
<path d="M396.141 613.56C396.141 319.746 1559.37 81.9041 2994.26 81.9041C4429.16 81.9041 5592.38 320.095 5592.38 613.56C5592.38 907.026 4429.5 1145.39 2994.26 1145.39C1559.02 1145.39 396.141 907.897 396.141 613.56Z" fill="#133A6E"/>
<path d="M2994.24 1142.07C4419.51 1142.07 5574.92 905.526 5574.92 613.73C5574.92 321.935 4419.51 85.3877 2994.24 85.3877C1568.97 85.3877 413.555 321.935 413.555 613.73C413.555 905.526 1568.97 1142.07 2994.24 1142.07Z" fill="#133B6E"/>
<path d="M431.02 613.55C431.02 323.921 1577.51 89.0437 2994.27 89.0437C4411.03 89.0437 5557.51 324.095 5557.51 613.55C5557.51 903.005 4410.15 1138.23 2994.27 1138.23C1578.38 1138.23 431.02 903.354 431.02 613.55Z" fill="#133B6F"/>
<path d="M448.434 613.587C448.434 325.876 1587.94 92.7424 2994.24 92.7424C4400.54 92.7424 5538.83 326.399 5538.83 613.587C5538.83 900.775 4399.49 1134.61 2993.02 1134.61C1586.55 1134.61 448.434 901.473 448.434 613.587Z" fill="#143B70"/>
<path d="M2994.26 1131.1C4390.16 1131.1 5521.76 899.469 5521.76 613.741C5521.76 328.012 4390.16 96.3834 2994.26 96.3834C1598.36 96.3834 466.758 328.012 466.758 613.741C466.758 899.469 1598.36 1131.1 2994.26 1131.1Z" fill="#143C71"/>
<path d="M2994.23 1127.45C4380.3 1127.45 5503.94 897.456 5503.94 613.75C5503.94 330.044 4380.3 100.055 2994.23 100.055C1608.15 100.055 484.512 330.044 484.512 613.75C484.512 897.456 1608.15 1127.45 2994.23 1127.45Z" fill="#153D73"/>
<path d="M502.324 613.548C502.324 331.068 1618.3 103.34 2994.78 103.34C4371.26 103.34 5487.75 331.94 5487.75 613.548C5487.75 895.156 4371.78 1123.76 2994.25 1123.76C1616.73 1123.76 502.324 895.331 502.324 613.548Z" fill="#153D73"/>
<path d="M2994.22 1120.29C4360.65 1120.29 5468.36 893.5 5468.36 613.742C5468.36 333.984 4360.65 107.196 2994.22 107.196C1627.79 107.196 520.078 333.984 520.078 613.742C520.078 893.5 1627.79 1120.29 2994.22 1120.29Z" fill="#153E75"/>
<path d="M537.379 613.545C537.379 335.947 1637.48 110.311 2994.26 110.311C4351.04 110.311 5450.62 335.424 5450.62 613.196C5450.62 890.968 4350.86 1116.08 2994.26 1116.08C1637.66 1116.08 537.379 891.143 537.379 613.545Z" fill="#163F76"/>
<path d="M2994.27 1113.13C4341.06 1113.13 5432.84 889.544 5432.84 613.734C5432.84 337.925 4341.06 114.337 2994.27 114.337C1647.48 114.337 555.699 337.925 555.699 613.734C555.699 889.544 1647.48 1113.13 2994.27 1113.13Z" fill="#163E77"/>
<path d="M2994.24 1109.48C4331.2 1109.48 5415.02 887.53 5415.02 613.743C5415.02 339.956 4331.2 118.008 2994.24 118.008C1657.28 118.008 573.453 339.956 573.453 613.743C573.453 887.53 1657.28 1109.48 2994.24 1109.48Z" fill="#163F78"/>
<path d="M591.262 613.548C591.262 341.879 1667.13 121.649 2994.26 121.649C4321.39 121.649 5397.26 341.53 5397.26 613.548C5397.26 885.566 4321.39 1105.62 2994.26 1105.62C1667.13 1105.62 591.262 885.392 591.262 613.548Z" fill="#163F78"/>
<path d="M2994.23 1102.14C4311.55 1102.14 5379.44 883.474 5379.44 613.732C5379.44 343.99 4311.55 125.32 2994.23 125.32C1676.91 125.32 609.016 343.99 609.016 613.732C609.016 883.474 1676.91 1102.14 2994.23 1102.14Z" fill="#17407A"/>
<path d="M2994.26 1098.49C4301.75 1098.49 5361.68 881.458 5361.68 613.738C5361.68 346.018 4301.75 128.988 2994.26 128.988C1686.76 128.988 626.828 346.018 626.828 613.738C626.828 881.458 1686.76 1098.49 2994.26 1098.49Z" fill="#17417A"/>
<path d="M2994.22 1094.84C4291.89 1094.84 5343.86 879.446 5343.86 613.748C5343.86 348.051 4291.89 132.66 2994.22 132.66C1696.55 132.66 644.578 348.051 644.578 613.748C644.578 879.446 1696.55 1094.84 2994.22 1094.84Z" fill="#17417B"/>
<path d="M2994.25 1091.17C4282.19 1091.17 5326.28 877.418 5326.28 613.742C5326.28 350.067 4282.19 136.316 2994.25 136.316C1706.3 136.316 662.219 350.067 662.219 613.742C662.219 877.418 1706.3 1091.17 2994.25 1091.17Z" fill="#17427D"/>
<path d="M2994.22 1087.5C4272.34 1087.5 5308.46 875.39 5308.46 613.737C5308.46 352.084 4272.34 139.972 2994.22 139.972C1716.1 139.972 679.973 352.084 679.973 613.737C679.973 875.39 1716.1 1087.5 2994.22 1087.5Z" fill="#17427D"/>
<path d="M697.613 613.576C697.613 354.113 1726.4 142.776 2994.25 142.776C4262.09 142.776 5290.88 353.241 5290.88 613.576C5290.88 873.911 4262.09 1084.38 2994.25 1084.38C1726.4 1084.38 697.613 873.388 697.613 613.576Z" fill="#18427E"/>
<path d="M715.426 613.555C715.426 356.009 1735.67 147.114 2994.27 147.114C4252.88 147.114 5273.12 356.358 5273.12 613.555C5273.12 870.751 4252.88 1080.17 2994.27 1080.17C1735.67 1080.17 715.426 871.274 715.426 613.555Z" fill="#18437F"/>
<path d="M2994.24 1076.69C4242.99 1076.69 5255.3 869.42 5255.3 613.737C5255.3 358.055 4242.99 150.784 2994.24 150.784C1745.49 150.784 733.18 358.055 733.18 613.737C733.18 869.42 1745.49 1076.69 2994.24 1076.69Z" fill="#184380"/>
<path d="M750.988 613.544C750.988 360.01 1755.36 154.427 2994.26 154.427C4233.17 154.427 5237.54 360.01 5237.54 613.544C5237.54 867.079 4233.17 1072.84 2994.26 1072.84C1755.36 1072.84 750.988 867.253 750.988 613.544Z" fill="#184481"/>
<path d="M2994.23 1069.37C4223.34 1069.37 5219.72 865.378 5219.72 613.74C5219.72 362.103 4223.34 158.11 2994.23 158.11C1765.13 158.11 768.742 362.103 768.742 613.74C768.742 865.378 1765.13 1069.37 2994.23 1069.37Z" fill="#184481"/>
<path d="M2994.25 1065.72C4213.54 1065.72 5201.96 863.365 5201.96 613.75C5201.96 364.134 4213.54 161.781 2994.25 161.781C1774.97 161.781 786.551 364.134 786.551 613.75C786.551 863.365 1774.97 1065.72 2994.25 1065.72Z" fill="#184582"/>
<path d="M804.312 613.566C804.312 365.959 1784.62 164.91 2994.23 164.91C4203.84 164.91 5184.15 365.611 5184.15 613.566C5184.15 861.52 4203.67 1062.22 2994.23 1062.22C1784.8 1062.22 804.312 861.346 804.312 613.566Z" fill="#184583"/>
<path d="M822.121 613.567C822.121 368.053 1794.59 168.922 2994.25 168.922C4193.92 168.922 5166.39 368.402 5166.39 613.567C5166.39 858.731 4193.92 1058.39 2994.25 1058.39C1794.59 1058.39 822.121 859.429 822.121 613.567Z" fill="#184684"/>
<path d="M2994.22 1054.7C4184.04 1054.7 5148.57 857.265 5148.57 613.717C5148.57 370.169 4184.04 172.734 2994.22 172.734C1804.41 172.734 839.875 370.169 839.875 613.717C839.875 857.265 1804.41 1054.7 2994.22 1054.7Z" fill="#194685"/>
<path d="M857.684 613.555C857.684 372.052 1814.11 176.234 2994.24 176.234C4174.38 176.234 5130.81 372.227 5130.81 613.555C5130.81 854.884 4174.21 1051.05 2994.24 1051.05C1814.28 1051.05 857.684 855.233 857.684 613.555Z" fill="#194787"/>
<path d="M2994.27 1047.57C4164.44 1047.57 5113.05 853.34 5113.05 613.741C5113.05 374.141 4164.44 179.907 2994.27 179.907C1824.1 179.907 875.496 374.141 875.496 613.741C875.496 853.34 1824.1 1047.57 2994.27 1047.57Z" fill="#194787"/>
<path d="M2994.24 1043.92C4154.59 1043.92 5095.23 851.323 5095.23 613.745C5095.23 376.168 4154.59 183.574 2994.24 183.574C1833.9 183.574 893.25 376.168 893.25 613.745C893.25 851.323 1833.9 1043.92 2994.24 1043.92Z" fill="#194789"/>
<path d="M911.059 613.581C911.059 378.181 1843.77 187.245 2994.26 187.245C4144.76 187.245 5077.47 378.181 5077.47 613.581C5077.47 848.981 4145.11 1040.79 2994.26 1040.79C1843.42 1040.79 911.059 849.155 911.059 613.581Z" fill="#194889"/>
<path d="M2994.24 1036.58C4135.03 1036.58 5059.83 847.268 5059.83 613.735C5059.83 380.202 4135.03 190.887 2994.24 190.887C1853.44 190.887 928.645 380.202 928.645 613.735C928.645 847.268 1853.44 1036.58 2994.24 1036.58Z" fill="#19488A"/>
<path d="M946.453 613.572C946.453 382.183 1863.29 195.083 2994.26 195.083C4125.23 195.083 5042.07 382.706 5042.07 613.572C5042.07 844.439 4125.23 1032.06 2994.26 1032.06C1863.29 1032.06 946.453 845.311 946.453 613.572Z" fill="#19498C"/>
<path d="M2994.23 1029.25C4115.38 1029.25 5024.25 843.212 5024.25 613.724C5024.25 384.236 4115.38 198.199 2994.23 198.199C1873.08 198.199 964.207 384.236 964.207 613.724C964.207 843.212 1873.08 1029.25 2994.23 1029.25Z" fill="#19498C"/>
<path d="M2994.25 1025.59C4105.58 1025.59 5006.49 841.195 5006.49 613.729C5006.49 386.264 4105.58 201.866 2994.25 201.866C1882.93 201.866 982.02 386.264 982.02 613.729C982.02 841.195 1882.93 1025.59 2994.25 1025.59Z" fill="#19498C"/>
<path d="M2994.22 1021.96C4095.72 1021.96 4988.67 839.199 4988.67 613.755C4988.67 388.312 4095.72 205.554 2994.22 205.554C1892.71 205.554 999.77 388.312 999.77 613.755C999.77 839.199 1892.71 1021.96 2994.22 1021.96Z" fill="#194A8F"/>
<path d="M1017.58 613.552C1017.58 390.009 1902.51 209.012 2994.94 209.012C4087.37 209.012 4972.3 390.183 4972.3 613.552C4972.3 836.92 4087.2 1018.27 2994.25 1018.27C1901.29 1018.27 1017.58 837.269 1017.58 613.552Z" fill="#19498F"/>
<path d="M2994.27 1014.62C4076.13 1014.62 4953.15 835.143 4953.15 613.745C4953.15 392.346 4076.13 212.867 2994.27 212.867C1912.41 212.867 1035.39 392.346 1035.39 613.745C1035.39 835.143 1912.41 1014.62 2994.27 1014.62Z" fill="#194B8F"/>
<path d="M1052.46 613.567C1052.46 394.209 1921.53 216.351 2993.56 216.351C4065.59 216.351 4934.65 393.86 4934.65 613.567C4934.65 833.273 4065.76 1011.13 2994.25 1011.13C1922.75 1011.13 1052.46 833.099 1052.46 613.567Z" fill="#194B90"/>
<path d="M1070.96 613.572C1070.96 396.306 1932 219.495 2994.26 219.495C4056.53 219.495 4917.57 395.783 4917.57 613.223C4917.57 830.663 4056.53 1007.65 2994.26 1007.65C1932 1007.65 1070.96 831.186 1070.96 613.572Z" fill="#194B91"/>
<path d="M2994.23 1003.81C4046.62 1003.81 4899.75 829.174 4899.75 613.746C4899.75 398.319 4046.62 223.68 2994.23 223.68C1941.84 223.68 1088.71 398.319 1088.71 613.746C1088.71 829.174 1941.84 1003.81 2994.23 1003.81Z" fill="#194C92"/>
<path d="M1106.52 613.567C1106.52 400.138 1951.69 227.162 2994.25 227.162C4036.81 227.162 4881.99 400.138 4881.99 613.567C4881.99 826.997 4036.99 1000.15 2994.25 1000.15C1951.52 1000.15 1106.52 827.171 1106.52 613.567Z" fill="#194D93"/>
<path d="M1124.27 613.565C1124.27 402.228 1961.25 231.345 2994.22 231.345C4027.19 231.345 4864.17 402.751 4864.17 613.565C4864.17 824.379 4027.19 995.785 2994.22 995.785C1961.25 995.785 1124.27 824.728 1124.27 613.565Z" fill="#194D94"/>
<path d="M1142.09 613.56C1142.09 404.315 1971.22 234.304 2994.25 234.304C4017.28 234.304 4846.42 404.141 4846.42 613.56C4846.42 822.978 4017.28 992.989 2994.25 992.989C1971.22 992.989 1142.09 823.153 1142.09 613.56Z" fill="#184E94"/>
<path d="M1159.67 613.568C1159.67 406.242 1980.95 237.974 2994.22 237.974C4007.49 237.974 4828.6 406.067 4828.6 613.568C4828.6 821.069 4007.49 989.336 2994.22 989.336C1980.95 989.336 1159.67 821.069 1159.67 613.568Z" fill="#184E95"/>
<path d="M1177.48 613.549C1177.48 408.141 1990.92 241.617 2994.25 241.617C3997.58 241.617 4811.02 407.792 4811.02 613.549C4811.02 819.306 3996.88 985.656 2994.25 985.656C1991.62 985.656 1177.48 819.132 1177.48 613.549Z" fill="#184F96"/>
<path d="M1195.29 613.554C1195.29 410.238 2000.71 245.283 2994.27 245.283C3987.84 245.283 4793.25 410.063 4793.25 613.554C4793.25 817.044 3988.19 981.999 2994.27 981.999C2000.36 981.999 1195.29 817.044 1195.29 613.554Z" fill="#185097"/>
<path d="M1213.05 613.58C1213.05 412.182 2010.62 248.971 2994.24 248.971C3977.86 248.971 4775.44 412.182 4775.44 613.58C4775.44 814.978 3977.86 978.363 2994.24 978.363C2010.62 978.363 1213.05 815.153 1213.05 613.58Z" fill="#185097"/>
<path d="M1230.69 613.56C1230.69 414.08 2020.24 252.612 2994.27 252.612C3968.3 252.612 4757.85 414.254 4757.85 613.56C4757.85 812.865 3968.13 974.332 2994.27 974.332C2020.41 974.332 1230.69 812.342 1230.69 613.56Z" fill="#175298"/>
<path d="M2994.24 971.203C3958.42 971.203 4740.04 811.163 4740.04 613.744C4740.04 416.325 3958.42 256.284 2994.24 256.284C2030.06 256.284 1248.44 416.325 1248.44 613.744C1248.44 811.163 2030.06 971.203 2994.24 971.203Z" fill="#175399"/>
<path d="M1266.25 613.548C1266.25 418.253 2039.93 259.924 2994.44 259.924C3948.94 259.924 4722.62 418.253 4722.62 613.548C4722.62 808.843 3948.94 967.346 2994.26 967.346C2039.58 967.346 1266.25 809.017 1266.25 613.548Z" fill="#175399"/>
<path d="M1284 613.56C1284 420.358 2049.66 263.424 2994.23 263.424C3938.79 263.424 4704.45 420.358 4704.45 613.56C4704.45 806.763 3938.62 963.696 2994.23 963.696C2049.84 963.696 1284 806.937 1284 613.56Z" fill="#17549A"/>
<path d="M2994.26 960.212C3928.96 960.212 4686.7 805.091 4686.7 613.738C4686.7 422.386 3928.96 267.264 2994.26 267.264C2059.55 267.264 1301.82 422.386 1301.82 613.738C1301.82 805.091 2059.55 960.212 2994.26 960.212Z" fill="#17549B"/>
<path d="M1320.3 613.549C1320.3 424.357 2070.1 270.736 2994.26 270.736C3918.42 270.736 4668.22 424.357 4668.22 613.549C4668.22 802.741 3918.42 956.535 2994.26 956.535C2070.1 956.535 1320.3 802.915 1320.3 613.549Z" fill="#17559B"/>
<path d="M2994.25 952.892C3909.31 952.892 4651.12 801.05 4651.12 613.742C4651.12 426.434 3909.31 274.591 2994.25 274.591C2079.18 274.591 1337.38 426.434 1337.38 613.742C1337.38 801.05 2079.18 952.892 2994.25 952.892Z" fill="#16569C"/>
<path d="M1355.19 613.566C1355.19 428.21 2088.94 278.077 2994.27 278.077C3899.61 278.077 4633.36 427.687 4633.36 613.566C4633.36 799.445 3899.61 949.229 2994.27 949.229C2088.94 949.229 1355.19 799.096 1355.19 613.566Z" fill="#17589C"/>
<path d="M1372.6 613.57C1372.6 430.83 2098.33 281.22 2994.25 281.22C3890.16 281.22 4615.89 429.783 4615.89 613.57C4615.89 797.356 3890.16 945.92 2994.25 945.92C2098.33 945.92 1372.6 797.007 1372.6 613.57Z" fill="#16589D"/>
<path d="M2994.26 942.069C3879.86 942.069 4597.78 795.066 4597.78 613.729C4597.78 432.392 3879.86 285.39 2994.26 285.39C2108.67 285.39 1390.75 432.392 1390.75 613.729C1390.75 795.066 2108.67 942.069 2994.26 942.069Z" fill="#16599E"/>
<path d="M2994.24 938.412C3870.1 938.412 4580.13 793.049 4580.13 613.734C4580.13 434.42 3870.1 289.056 2994.24 289.056C2118.37 289.056 1408.34 434.42 1408.34 613.734C1408.34 793.049 2118.37 938.412 2994.24 938.412Z" fill="#16599E"/>
<path d="M1426.15 613.571C1426.15 436.41 2128.16 292.729 2994.26 292.729C3860.36 292.729 4562.38 436.41 4562.38 613.571C4562.38 790.731 3860.71 934.412 2994.26 934.412C2127.82 934.412 1426.15 791.603 1426.15 613.571Z" fill="#175A9E"/>
<path d="M2994.23 931.078C3850.45 931.078 4544.56 788.993 4544.56 613.724C4544.56 438.454 3850.45 296.369 2994.23 296.369C2138.01 296.369 1443.9 438.454 1443.9 613.724C1443.9 788.993 2138.01 931.078 2994.23 931.078Z" fill="#175A9E"/>
<path d="M1461.71 613.568C1461.71 440.418 2147.86 299.701 2994.25 299.701C3840.65 299.701 4526.8 440.243 4526.8 613.568C4526.8 786.892 3840.65 927.435 2994.25 927.435C2147.86 927.435 1461.71 786.892 1461.71 613.568Z" fill="#175B9E"/>
<path d="M1479.46 613.546C1479.46 442.314 2157.59 303.515 2994.22 303.515C3830.85 303.515 4508.63 443.011 4508.63 613.546C4508.63 784.08 3831.2 924.448 2994.22 924.448C2157.24 924.448 1479.46 784.952 1479.46 613.546Z" fill="#185D9F"/>
<path d="M1497.28 613.566C1497.28 444.427 2167.38 307.197 2994.25 307.197C3821.11 307.197 4492.09 444.427 4492.09 613.566C4492.09 782.705 3821.98 920.109 2994.25 920.109C2166.51 920.109 1497.28 782.88 1497.28 613.566Z" fill="#185D9F"/>
<path d="M1515.09 613.577C1515.09 446.356 2177.7 310.87 2993.93 310.87C3810.15 310.87 4472.76 446.53 4472.76 613.577C4472.76 780.624 3810.5 916.982 2994.27 916.982C2178.05 916.982 1515.09 780.973 1515.09 613.577Z" fill="#185E9F"/>
<path d="M1532.84 613.554C1532.84 448.425 2187.08 314.509 2995.11 314.509C3803.15 314.509 4456.51 448.425 4456.51 613.554C4456.51 778.683 3802.1 912.599 2994.24 912.599C2186.38 912.599 1532.84 778.857 1532.84 613.554Z" fill="#185EA0"/>
<path d="M1551 613.566C1551 450.356 2197.39 318.183 2994.61 318.183C3791.83 318.183 4438.22 451.053 4438.22 613.566C4438.22 776.08 3791.83 909.996 2994.61 909.996C2197.39 909.996 1551 777.475 1551 613.566Z" fill="#185EA0"/>
<path d="M1568.41 613.557C1568.41 452.439 2206.78 321.835 2994.24 321.835C3781.69 321.835 4420.06 452.439 4420.06 613.557C4420.06 774.676 3781.69 905.453 2994.24 905.453C2206.78 905.453 1568.41 774.85 1568.41 613.557Z" fill="#185FA0"/>
<path d="M1586.22 613.552C1586.22 454.352 2216.57 325.491 2994.26 325.491C3771.95 325.491 4402.3 454.352 4402.3 613.552C4402.3 772.752 3771.95 901.786 2994.26 901.786C2216.57 901.786 1586.22 772.926 1586.22 613.552Z" fill="#185FA0"/>
<path d="M2994.23 898.308C3762.05 898.308 4384.48 770.9 4384.48 613.735C4384.48 456.57 3762.05 329.163 2994.23 329.163C2226.41 329.163 1603.97 456.57 1603.97 613.735C1603.97 770.9 2226.41 898.308 2994.23 898.308Z" fill="#1860A1"/>
<path d="M1621.61 613.558C1621.61 458.368 2236.44 332.647 2994.26 332.647C3752.07 332.647 4366.73 458.368 4366.73 613.558C4366.73 768.748 3751.9 894.643 2994.26 894.643C2236.62 894.643 1621.61 768.748 1621.61 613.558Z" fill="#1861A1"/>
<path d="M1639.37 613.578C1639.37 460.481 2246 336.329 2994.23 336.329C3742.45 336.329 4349.08 460.655 4349.08 613.578C4349.08 766.501 3742.45 891.175 2994.23 891.175C2246 891.175 1639.37 766.849 1639.37 613.578Z" fill="#1961A1"/>
<path d="M2994.25 887.318C3732.69 887.318 4331.32 764.828 4331.32 613.73C4331.32 462.632 3732.69 340.143 2994.25 340.143C2255.8 340.143 1657.18 462.632 1657.18 613.73C1657.18 764.828 2255.8 887.318 2994.25 887.318Z" fill="#1963A2"/>
<path d="M1674.93 613.575C1674.93 463.965 2265.7 343.475 2994.22 343.475C3722.74 343.475 4313.5 464.488 4313.5 613.575C4313.5 762.662 3722.91 883.849 2994.22 883.849C2265.52 883.849 1674.93 762.836 1674.93 613.575Z" fill="#1A63A2"/>
<path d="M1692.74 613.56C1692.74 466.565 2275.49 347.645 2994.24 347.645C3713 347.645 4295.74 466.914 4295.74 613.56C4295.74 760.205 3713 879.474 2994.24 879.474C2275.49 879.474 1692.74 760.031 1692.74 613.56Z" fill="#1A63A2"/>
<path d="M2994.27 876.689C3703.24 876.689 4277.98 758.962 4277.98 613.738C4277.98 468.515 3703.24 350.788 2994.27 350.788C2285.29 350.788 1710.55 468.515 1710.55 613.738C1710.55 758.962 2285.29 876.689 2994.27 876.689Z" fill="#1B65A3"/>
<path d="M1728.3 613.569C1728.3 470.585 2295.01 354.454 2994.23 354.454C3693.46 354.454 4260.16 470.76 4260.16 613.569C4260.16 756.378 3693.46 872.858 2994.23 872.858C2295.01 872.858 1728.3 756.902 1728.3 613.569Z" fill="#1C65A3"/>
<path d="M1746.12 613.553C1746.12 472.487 2304.1 358.101 2994.26 358.101C3684.42 358.101 4242.75 472.487 4242.75 613.553C4242.75 754.619 3684.77 869.18 2994.61 869.18C2304.45 869.18 1746.12 754.793 1746.12 613.553Z" fill="#1B65A3"/>
<path d="M2994.23 865.712C3673.84 865.712 4224.76 752.903 4224.76 613.747C4224.76 474.59 3673.84 361.782 2994.23 361.782C2314.63 361.782 1763.7 474.59 1763.7 613.747C1763.7 752.903 2314.63 865.712 2994.23 865.712Z" fill="#1C67A4"/>
<path d="M1781.51 613.557C1781.51 476.501 2324.32 365.253 2994.43 365.253C3664.53 365.253 4207.35 476.501 4207.35 613.557C4207.35 750.612 3664.71 862.034 2994.25 862.034C2323.8 862.034 1781.51 750.786 1781.51 613.557Z" fill="#1C67A4"/>
<path d="M2994.22 858.391C3654.18 858.391 4189.18 748.861 4189.18 613.75C4189.18 478.638 3654.18 369.108 2994.22 369.108C2334.26 369.108 1799.26 478.638 1799.26 613.75C1799.26 748.861 2334.26 858.391 2994.22 858.391Z" fill="#1C68A5"/>
<path d="M2994.25 854.707C3644.39 854.707 4171.42 746.816 4171.42 613.727C4171.42 480.637 3644.39 372.747 2994.25 372.747C2344.11 372.747 1817.07 480.637 1817.07 613.727C1817.07 746.816 2344.11 854.707 2994.25 854.707Z" fill="#166CAE"/>
<path d="M2405.74 613.577C2405.74 547.142 2669.21 493.087 2994.24 493.087C3319.27 493.087 3582.74 547.142 3582.74 613.577C3582.74 680.012 3319.27 734.241 2994.24 734.241C2669.21 734.241 2405.74 680.187 2405.74 613.577Z" fill="#166CAE"/>
</g>
<path d="M1 613.564C1 275.285 300.045 1 669.188 1H5319.3C5688.27 1 5987.49 275.285 5987.49 613.564C5987.49 952.017 5688.44 1226.3 5319.3 1226.3H669.188C300.045 1226.48 1 951.842 1 613.564Z" stroke="white" stroke-width="2" stroke-miterlimit="10"/>
<path d="M803.274 438.484V839.536H919.23V438.484H803.274ZM1127.25 429.94C1026.12 429.94 970.32 499.688 970.32 562.811C970.32 642.498 1021.24 674.756 1109.82 695.681C1135.8 701.784 1159.69 705.794 1159.69 723.929C1159.69 742.063 1141.03 750.433 1124.81 750.433C1085.64 751.438 1047.52 737.754 1017.92 712.072L961.951 800.303C1007.61 832.317 1062.26 848.988 1118.01 847.906C1217.75 847.906 1275.82 791.236 1275.82 715.036C1275.82 642.672 1235.19 603.09 1120.28 578.852C1091.33 572.575 1082.44 566.821 1082.44 554.441C1082.44 537.004 1105.11 531.773 1124.81 531.773C1158.93 533 1191.6 545.86 1217.4 568.216L1267.27 475.974C1227.67 443.59 1177.48 427.007 1126.38 429.417L1127.25 429.94ZM1303.02 438.484L1289.42 538.224H1395.26V839.188H1512.09V538.573H1599.27L1612.88 438.833L1303.02 438.484ZM1646.88 438.484V839.536H1905.99L1923.43 739.797H1764.4V698.645H1876.35L1885.94 604.136H1763.88V539.096H1907.56L1896.23 439.356L1646.88 438.484ZM2246.36 438.484L2173.48 631.338L2099.37 438.484H1984.63L1946.79 839.536H2060.48L2074.78 603.613L2173.13 843.547L2272.52 603.09L2284.55 839.013H2398.41L2360.58 437.961L2246.36 438.484ZM2539.83 438.484L2412.54 839.536H2533.03L2553.43 764.208H2662.93L2683.86 839.536H2803.65L2674.79 438.484H2539.83ZM2642.18 680.162H2574.88L2608.18 543.978L2642.18 680.162ZM2986.39 430.114C2885.26 430.114 2829.46 499.863 2829.46 562.985C2829.46 642.672 2880.37 674.931 2968.95 695.855C2994.94 701.958 3018.82 705.969 3018.82 724.103C3018.82 742.238 3000.17 750.607 2983.95 750.607C2944.78 751.612 2906.65 737.929 2877.06 712.246L2821.09 800.478C2866.75 832.112 2921.26 848.471 2976.8 847.209C3076.54 847.209 3134.61 790.538 3134.61 714.339C3134.61 641.975 3093.98 602.393 2979.07 578.155C2950.12 571.878 2941.23 566.124 2941.23 553.744C2941.23 536.306 2963.9 531.075 2983.6 531.075C3017.87 532.31 3050.64 545.372 3076.37 568.042L3126.24 475.8C3086.58 443.631 3036.53 427.073 2985.52 429.243L2986.39 430.114ZM3373.67 430.114C3346.79 429.466 3320.04 434.129 3294.96 443.837C3269.89 453.545 3246.97 468.106 3227.53 486.686C3208.1 505.266 3192.52 527.5 3181.69 552.113C3170.86 576.725 3164.99 603.233 3164.42 630.117C3164.42 633.024 3164.42 635.93 3164.42 638.836C3163.27 666.624 3167.89 694.349 3177.99 720.26C3188.1 746.171 3203.47 769.703 3223.14 789.369C3242.8 809.035 3266.33 824.407 3292.24 834.513C3318.16 844.618 3345.88 849.238 3373.67 848.08C3400.61 849.252 3427.51 844.889 3452.7 835.262C3477.89 825.635 3500.84 810.949 3520.14 792.108L3494.86 762.639C3478.6 778.499 3459.29 790.896 3438.1 799.078C3416.91 807.26 3394.28 811.058 3371.58 810.242C3271.84 810.242 3205.4 731.427 3205.4 639.185C3205.4 542.409 3275.15 468.999 3371.58 468.999C3414.1 468.263 3455.24 484.082 3486.31 513.115L3512.82 486.088C3494.53 467.883 3472.74 453.582 3448.76 444.051C3424.78 434.519 3399.11 429.956 3373.32 430.637L3373.67 430.114ZM3755.89 430.114C3714.5 430.114 3674.05 442.386 3639.64 465.379C3605.23 488.371 3578.41 521.05 3562.57 559.285C3546.73 597.519 3542.59 639.591 3550.66 680.181C3558.74 720.77 3578.67 758.054 3607.93 787.317C3637.19 816.581 3674.48 836.509 3715.07 844.583C3755.66 852.657 3797.73 848.513 3835.96 832.676C3874.2 816.839 3906.88 790.02 3929.87 755.609C3952.86 721.199 3965.13 680.744 3965.13 639.359C3965.69 612.4 3960.92 585.596 3951.1 560.482C3941.29 535.368 3926.61 512.437 3907.92 493.001C3889.23 473.565 3866.89 458.006 3842.18 447.215C3817.47 436.424 3790.87 430.613 3763.91 430.114H3756.59H3755.89ZM3589.71 639.359C3589.71 606.493 3599.46 574.365 3617.72 547.038C3635.98 519.71 3661.93 498.411 3692.3 485.833C3722.66 473.256 3756.07 469.965 3788.31 476.377C3820.54 482.789 3850.15 498.616 3873.39 521.856C3896.63 545.096 3912.46 574.705 3918.87 606.94C3925.28 639.175 3921.99 672.587 3909.41 702.951C3896.84 733.316 3875.54 759.269 3848.21 777.529C3820.88 795.788 3788.75 805.534 3755.89 805.534C3733.95 805.535 3712.23 801.191 3691.97 792.753C3671.72 784.314 3653.34 771.949 3637.89 756.37C3622.44 740.792 3610.23 722.308 3601.96 701.985C3593.69 681.662 3589.53 659.904 3589.71 637.964V639.359ZM4278.48 439.182V742.587L4013.96 425.755V839.362H4054.06V530.726L4317.01 847.209V438.484L4278.48 439.182ZM4359.73 439.182L4354.15 476.148H4470.46V840.408H4511.26V475.8H4623.21L4629.48 438.833L4359.73 439.182ZM4665.06 439.182V840.234H4705.34V439.182H4665.06ZM5033.85 439.182V742.587L4769.33 425.755V839.362H4809.44V530.726L5072.21 847.209V438.484L5033.85 439.182ZM615.128 430.637C513.993 430.637 458.194 500.386 458.194 563.508C458.194 643.196 509.111 675.454 597.691 696.378C623.672 702.481 647.561 706.492 647.561 724.626C647.561 742.761 628.903 751.13 612.687 751.13C572.971 752.345 534.273 738.449 504.403 712.246L448.43 799.955C494.087 831.968 548.739 848.639 604.491 847.557C704.231 847.557 762.297 790.887 762.297 714.687C762.297 642.323 721.668 602.741 606.758 578.504C577.812 572.227 568.92 566.472 568.92 554.092C568.92 536.655 591.588 531.424 611.292 531.424C645.595 532.719 678.41 545.771 704.231 568.391L754.101 476.148C741.895 465.861 699 430.114 614.605 430.114L615.128 430.637Z" fill="white"/>
<path d="M5165.53 637.973C5165.53 682.045 5183.04 724.313 5214.2 755.476C5245.37 786.64 5287.63 804.148 5331.71 804.148C5375.78 804.148 5418.05 786.64 5449.21 755.476C5480.37 724.313 5497.88 682.045 5497.88 637.973C5499.04 603.414 5489.27 569.369 5469.95 540.69C5450.63 512.011 5422.76 490.16 5390.29 478.249V437.621C5434.15 449.731 5472.7 476.14 5499.84 512.658C5526.98 549.176 5541.14 593.71 5540.08 639.193C5540.08 694.689 5518.03 747.91 5478.79 787.151C5439.55 826.392 5386.33 848.438 5330.83 848.438C5276.2 848.856 5223.64 827.565 5184.7 789.244C5145.75 750.923 5123.62 698.709 5123.16 644.076C5123.16 642.448 5123.16 640.763 5123.16 639.019C5122.03 593.627 5136.16 549.168 5163.28 512.753C5190.41 476.337 5228.96 450.067 5272.77 438.144V478.947C5240.52 490.923 5212.83 512.703 5193.59 541.227C5174.36 569.75 5164.55 603.584 5165.53 637.973Z" fill="#F49D13"/>
<path d="M5314.24 380.076H5349.46V639.19H5314.24V380.076Z" fill="#F49D13"/>
<path d="M896.935 1472.85C891.204 1471.23 885.382 1469.95 879.498 1469.02C873.752 1467.9 867.915 1467.32 862.061 1467.27C857.098 1466.86 852.103 1467.51 847.414 1469.19C846.314 1469.7 845.383 1470.51 844.733 1471.53C844.083 1472.55 843.743 1473.74 843.752 1474.95C843.757 1475.64 843.935 1476.32 844.27 1476.93C844.605 1477.54 845.086 1478.06 845.67 1478.43C847.304 1479.6 849.058 1480.6 850.901 1481.4L858.573 1484.54L867.641 1488.02C871.99 1489.9 876.238 1491.99 880.37 1494.3C884.735 1496.74 888.729 1499.79 892.227 1503.37C895.799 1507.08 898.691 1511.39 900.771 1516.1C903.115 1521.6 904.245 1527.55 904.084 1533.53C904.563 1540.85 903.221 1548.16 900.177 1554.83C897.134 1561.49 892.486 1567.3 886.647 1571.72C871.422 1581.36 853.54 1585.94 835.557 1584.8C829.728 1584.82 823.905 1584.47 818.12 1583.75C813.005 1583.06 807.541 1582.13 801.729 1580.96H797.893V1537.37C810.429 1540.21 823.228 1541.73 836.08 1541.9C840.866 1542.13 845.653 1541.48 850.204 1539.99C851.537 1539.57 852.7 1538.74 853.517 1537.6C854.335 1536.47 854.763 1535.1 854.737 1533.71C854.732 1532.74 854.491 1531.79 854.035 1530.94C853.579 1530.09 852.922 1529.37 852.122 1528.83C849.964 1527.26 847.622 1525.98 845.147 1524.99L835.208 1521.33C831.401 1520.04 827.674 1518.53 824.048 1516.79C820.72 1514.74 817.57 1512.41 814.632 1509.82C811.331 1507.54 808.392 1504.78 805.914 1501.62C803.196 1498.16 801.075 1494.27 799.637 1490.12C797.982 1485.23 797.157 1480.1 797.195 1474.95C797.107 1467.75 798.533 1460.63 801.38 1454.02C804.023 1447.87 808.087 1442.43 813.238 1438.15C818.806 1433.64 825.204 1430.27 832.069 1428.21C840.099 1425.81 848.448 1424.63 856.83 1424.73C863.76 1424.72 870.686 1425.07 877.58 1425.77C884.787 1426.47 891.297 1427.46 897.11 1428.74L896.935 1472.85Z" fill="#174481"/>
<path d="M1081.56 1504.93C1081.59 1515.31 1079.7 1525.59 1075.98 1535.27C1072.33 1544.76 1066.82 1553.42 1059.76 1560.73C1052.41 1568.22 1043.64 1574.15 1033.95 1578.17C1011.87 1586.84 987.331 1586.84 965.251 1578.17C955.684 1574.23 947.023 1568.38 939.797 1560.97C932.571 1553.56 926.933 1544.76 923.228 1535.1C915.648 1515.46 915.648 1493.71 923.228 1474.07C926.933 1464.41 932.571 1455.61 939.797 1448.2C947.023 1440.8 955.684 1434.94 965.251 1431C987.386 1422.3 1011.99 1422.3 1034.13 1431C1043.77 1435.06 1052.47 1441.05 1059.7 1448.61C1066.93 1456.17 1072.53 1465.13 1076.15 1474.94C1079.78 1484.52 1081.62 1494.69 1081.56 1504.93ZM999.601 1539.81C1004.21 1539.87 1008.78 1538.98 1013.03 1537.19C1017.03 1535.49 1020.65 1533 1023.66 1529.87C1026.68 1526.63 1029.04 1522.84 1030.64 1518.71C1032.37 1514.32 1033.26 1509.65 1033.26 1504.93C1033.31 1500.23 1032.48 1495.56 1030.81 1491.16C1029.25 1487.01 1026.88 1483.22 1023.84 1480C1020.79 1476.79 1017.11 1474.24 1013.03 1472.5C1008.72 1470.73 1004.09 1469.84 999.427 1469.89C994.937 1469.87 990.489 1470.76 986.35 1472.5C982.327 1474.16 978.702 1476.66 975.713 1479.82C972.655 1483.07 970.23 1486.85 968.563 1490.98C966.786 1495.42 965.897 1500.16 965.948 1504.93C965.937 1509.65 966.825 1514.33 968.563 1518.71C970.159 1522.84 972.527 1526.63 975.539 1529.87C978.548 1533.01 982.167 1535.5 986.175 1537.19C990.423 1538.98 994.994 1539.87 999.601 1539.81Z" fill="#174481"/>
<path d="M1144.87 1536.32H1197.18L1186.89 1581.3H1096.05V1428.38L1144.35 1424.89L1144.87 1536.32Z" fill="#174481"/>
<path d="M1255.61 1529.17C1255.56 1532.15 1256.29 1535.09 1257.7 1537.71C1258.98 1540.04 1261.89 1541.2 1266.42 1541.2C1268.23 1541.31 1270.03 1540.95 1271.65 1540.15C1272.89 1539.46 1273.92 1538.43 1274.62 1537.19C1275.28 1536.01 1275.7 1534.7 1275.84 1533.35C1275.91 1532.02 1275.91 1530.68 1275.84 1529.34V1428.38L1324.14 1424.89V1532.48C1324.55 1539.71 1323.34 1546.94 1320.59 1553.63C1317.85 1560.33 1313.64 1566.33 1308.27 1571.19C1294.95 1581.17 1278.5 1586.05 1261.89 1584.96C1253.99 1585.07 1246.14 1583.78 1238.69 1581.13C1232.2 1578.86 1226.25 1575.23 1221.26 1570.49C1216.58 1565.92 1212.95 1560.39 1210.62 1554.28C1208.1 1547.53 1206.85 1540.38 1206.96 1533.18V1428.55L1255.26 1425.07L1255.61 1529.17Z" fill="#174481"/>
<path d="M1450.02 1474.95C1446.04 1473.25 1441.97 1471.79 1437.81 1470.59C1433.65 1469.57 1429.37 1469.1 1425.08 1469.2C1414.86 1468.6 1404.81 1471.97 1397.01 1478.61C1393.57 1481.87 1390.86 1485.82 1389.09 1490.22C1387.31 1494.61 1386.51 1499.34 1386.72 1504.07C1386.67 1509.05 1387.68 1513.98 1389.69 1518.54C1391.63 1522.73 1394.42 1526.47 1397.88 1529.53C1401.35 1532.59 1405.38 1534.96 1409.74 1536.5C1414.44 1538.17 1419.4 1538.99 1424.39 1538.94C1429.27 1538.99 1434.13 1538.41 1438.86 1537.2C1443.32 1535.97 1447.6 1534.15 1451.59 1531.79L1445.14 1580.44C1440.62 1581.65 1436.01 1582.53 1431.36 1583.06C1426.56 1583.64 1421.73 1583.93 1416.89 1583.93C1406.25 1584.04 1395.7 1582.02 1385.85 1578C1376.58 1574.18 1368.16 1568.55 1361.09 1561.44C1353.67 1554.37 1347.74 1545.89 1343.65 1536.5C1339.56 1526.61 1337.48 1516 1337.55 1505.29C1337.46 1494.07 1339.53 1482.94 1343.65 1472.51C1347.43 1462.84 1353.18 1454.07 1360.54 1446.74C1367.89 1439.42 1376.69 1433.7 1386.37 1429.96C1396.98 1425.81 1408.29 1423.74 1419.68 1423.86C1423.53 1423.83 1427.38 1424.12 1431.19 1424.73L1441.3 1427L1450.02 1474.95Z" fill="#174481"/>
<path d="M1518.89 1581.33L1470.59 1584.81V1427.88L1518.89 1424.39V1581.33Z" fill="#174481"/>
<path d="M1700.44 1504.93C1700.47 1515.31 1698.58 1525.59 1694.86 1535.27C1691.22 1544.76 1685.7 1553.42 1678.64 1560.73C1671.3 1568.22 1662.52 1574.15 1652.84 1578.17C1630.76 1586.84 1606.21 1586.84 1584.13 1578.17C1574.57 1574.23 1565.91 1568.38 1558.68 1560.97C1551.45 1553.56 1545.82 1544.76 1542.11 1535.1C1534.53 1515.46 1534.53 1493.71 1542.11 1474.07C1545.82 1464.41 1551.45 1455.61 1558.68 1448.2C1565.91 1440.8 1574.57 1434.94 1584.13 1431C1606.27 1422.3 1630.87 1422.3 1653.01 1431C1662.57 1435.02 1671.21 1440.94 1678.4 1448.4C1685.6 1455.87 1691.2 1464.72 1694.86 1474.42C1698.62 1484.15 1700.51 1494.5 1700.44 1504.93ZM1618.48 1539.81C1623.09 1539.87 1627.66 1538.98 1631.91 1537.19C1635.91 1535.49 1639.53 1533 1642.55 1529.87C1645.56 1526.63 1647.93 1522.84 1649.52 1518.71C1651.26 1514.32 1652.14 1509.65 1652.14 1504.93C1652.19 1500.23 1651.36 1495.56 1649.7 1491.16C1648.13 1487.01 1645.76 1483.22 1642.72 1480C1639.67 1476.79 1635.99 1474.24 1631.91 1472.5C1627.6 1470.73 1622.97 1469.84 1618.31 1469.89C1613.82 1469.87 1609.37 1470.76 1605.23 1472.5C1601.21 1474.16 1597.59 1476.66 1594.6 1479.82C1591.54 1483.07 1589.11 1486.85 1587.45 1490.98C1585.67 1495.42 1584.78 1500.16 1584.83 1504.93C1584.82 1509.65 1585.71 1514.33 1587.45 1518.71C1589.04 1522.84 1591.41 1526.63 1594.42 1529.87C1597.43 1533.01 1601.05 1535.5 1605.06 1537.19C1609.31 1538.98 1613.88 1539.87 1618.48 1539.81Z" fill="#174481"/>
<path d="M1854.4 1581.33H1808.54L1762.85 1507.57V1581.33L1716.47 1584.81V1427.88H1763.2L1807.49 1500.94V1427.88L1853.87 1424.39L1854.4 1581.33Z" fill="#174481"/>
<path d="M1961.09 1428.42L1970.68 1469.4H1924.48V1484.57H1954.64V1522.76H1924.48V1538.97H1974L1964.23 1581.34H1877.05V1428.42H1961.09Z" fill="#174481"/>
<path d="M2085.28 1472.86C2079.55 1471.24 2073.72 1469.96 2067.84 1469.03C2062.09 1467.91 2056.26 1467.33 2050.4 1467.28C2045.44 1466.87 2040.45 1467.52 2035.76 1469.2C2034.66 1469.71 2033.72 1470.52 2033.08 1471.54C2032.43 1472.56 2032.08 1473.75 2032.09 1474.96C2032.1 1475.65 2032.28 1476.33 2032.61 1476.94C2032.95 1477.55 2033.43 1478.07 2034.01 1478.44C2035.65 1479.61 2037.4 1480.61 2039.24 1481.41L2046.92 1484.55L2055.98 1488.03C2060.33 1489.9 2064.58 1492 2068.71 1494.31C2073.08 1496.75 2077.07 1499.8 2080.57 1503.38C2084.14 1507.09 2087.03 1511.4 2089.11 1516.11C2091.46 1521.61 2092.59 1527.56 2092.43 1533.54C2092.9 1540.85 2091.56 1548.17 2088.52 1554.83C2085.48 1561.5 2080.83 1567.3 2074.99 1571.73C2059.76 1581.37 2041.88 1585.95 2023.9 1584.81C2018.07 1584.82 2012.25 1584.48 2006.46 1583.76C2001.35 1583.07 1995.88 1582.14 1990.07 1580.97H1986.23V1537.38C1998.77 1540.22 2011.57 1541.74 2024.42 1541.91C2029.21 1542.14 2033.99 1541.49 2038.55 1540C2039.88 1539.58 2041.04 1538.75 2041.86 1537.61C2042.68 1536.48 2043.1 1535.11 2043.08 1533.72C2043.07 1532.75 2042.83 1531.8 2042.38 1530.95C2041.92 1530.1 2041.26 1529.38 2040.46 1528.84C2038.31 1527.27 2035.96 1525.99 2033.49 1525L2023.55 1521.34C2019.74 1520.05 2016.02 1518.54 2012.39 1516.8C2008.8 1515.18 2005.36 1513.26 2002.1 1511.05C1998.8 1508.77 1995.86 1506.01 1993.38 1502.86C1990.67 1499.39 1988.54 1495.51 1987.11 1491.35C1985.47 1486.34 1984.71 1481.09 1984.84 1475.83C1984.75 1468.64 1986.18 1461.51 1989.02 1454.9C1991.67 1448.75 1995.73 1443.31 2000.88 1439.04C2006.45 1434.53 2012.85 1431.15 2019.71 1429.1C2027.74 1426.69 2036.09 1425.51 2044.47 1425.61C2051.4 1425.6 2058.33 1425.95 2065.22 1426.66C2072.43 1427.35 2078.94 1428.34 2084.75 1429.62L2085.28 1472.86Z" fill="#174481"/>
<path d="M2225.45 1428.39C2237.38 1428.16 2249.23 1430.29 2260.33 1434.67C2269.93 1438.66 2278.6 1444.6 2285.78 1452.11C2292.55 1459.11 2297.83 1467.42 2301.3 1476.52C2304.88 1485.69 2306.72 1495.45 2306.71 1505.29C2306.83 1515.91 2304.87 1526.45 2300.95 1536.33C2297.41 1545.43 2292 1553.69 2285.06 1560.57C2278.12 1567.45 2269.81 1572.8 2260.68 1576.26C2250.77 1580.06 2240.24 1581.95 2229.64 1581.84H2174.71V1428.92L2225.45 1428.39ZM2223.01 1537.55H2228.07C2232.45 1537.59 2236.79 1536.7 2240.8 1534.93C2244.4 1533.37 2247.65 1531.12 2250.39 1528.31C2253.02 1525.5 2255.04 1522.18 2256.32 1518.54C2257.6 1514.84 2258.25 1510.95 2258.23 1507.03C2258.6 1502.36 2257.95 1497.66 2256.33 1493.27C2254.71 1488.87 2252.15 1484.87 2248.83 1481.56C2245.52 1478.24 2241.53 1475.69 2237.13 1474.06C2232.73 1472.44 2228.03 1471.79 2223.36 1472.16L2223.01 1537.55Z" fill="#174481"/>
<path d="M2406.99 1428.42L2416.58 1469.4H2370.37V1484.57H2400.54V1522.76H2370.37V1538.97H2419.89L2410.13 1581.34H2322.94V1428.42H2406.99Z" fill="#174481"/>
<path d="M2598.6 1480.02C2591 1473.58 2581.35 1470.06 2571.39 1470.08C2566.65 1470.01 2561.95 1470.96 2557.62 1472.87C2553.63 1474.66 2550.06 1477.28 2547.16 1480.55C2544.23 1483.92 2541.98 1487.83 2540.53 1492.06C2538.97 1496.6 2538.2 1501.38 2538.26 1506.18C2538.21 1510.74 2538.92 1515.28 2540.36 1519.61C2541.68 1523.51 2543.75 1527.13 2546.46 1530.24C2549.16 1533.31 2552.49 1535.75 2556.22 1537.39C2560.23 1539.16 2564.57 1540.05 2568.95 1540.01H2574.36H2577.85V1525.53H2554.83L2563.37 1490.66H2624.58V1572.44C2616.18 1576.65 2607.35 1579.92 2598.25 1582.21C2588.42 1584.52 2578.35 1585.64 2568.26 1585.52C2557.18 1585.67 2546.2 1583.54 2536 1579.24C2526.62 1575.26 2518.16 1569.37 2511.17 1561.96C2504.18 1554.55 2498.8 1545.77 2495.37 1536.17C2491.59 1525.78 2489.7 1514.8 2489.79 1503.74C2489.79 1493.92 2491.75 1484.2 2495.54 1475.14C2499.4 1465.79 2505.03 1457.26 2512.11 1450.03C2519.57 1442.61 2528.39 1436.69 2538.09 1432.6C2549.09 1427.86 2560.99 1425.54 2572.96 1425.79C2581.78 1425.73 2590.56 1427.08 2598.94 1429.81C2607.96 1432.97 2616.52 1437.3 2624.4 1442.71L2598.6 1480.02Z" fill="#174481"/>
<path d="M2728.87 1428.42L2738.46 1469.4H2692.25V1484.57H2722.42V1522.76H2692.25V1538.97H2741.78L2732.71 1581.34H2645.52V1428.42H2728.87Z" fill="#174481"/>
<path d="M2853.01 1472.86C2847.28 1471.24 2841.46 1469.96 2835.58 1469.03C2829.83 1467.91 2823.99 1467.33 2818.14 1467.28C2813.18 1466.87 2808.18 1467.52 2803.49 1469.2C2802.39 1469.71 2801.46 1470.52 2800.81 1471.54C2800.16 1472.56 2799.82 1473.75 2799.83 1474.96C2799.84 1475.65 2800.01 1476.33 2800.35 1476.94C2800.68 1477.55 2801.17 1478.07 2801.75 1478.44C2803.38 1479.61 2805.14 1480.61 2806.98 1481.41L2814.65 1484.55L2823.72 1488.03C2828.07 1489.9 2832.32 1492 2836.45 1494.31C2840.82 1496.75 2844.81 1499.8 2848.31 1503.38C2851.88 1507.09 2854.77 1511.4 2856.85 1516.11C2859.19 1521.61 2860.32 1527.56 2860.16 1533.54C2860.64 1540.85 2859.3 1548.17 2856.26 1554.83C2853.21 1561.5 2848.56 1567.3 2842.73 1571.73C2827.5 1581.37 2809.62 1585.95 2791.64 1584.81C2785.81 1584.82 2779.98 1584.48 2774.2 1583.76C2769.08 1583.07 2763.62 1582.14 2757.81 1580.97H2753.97V1537.38C2766.51 1540.22 2779.31 1541.74 2792.16 1541.91C2796.95 1542.14 2801.73 1541.49 2806.28 1540C2807.62 1539.58 2808.78 1538.75 2809.6 1537.61C2810.41 1536.48 2810.84 1535.11 2810.82 1533.72C2810.81 1532.75 2810.57 1531.8 2810.11 1530.95C2809.66 1530.1 2809 1529.38 2808.2 1528.84C2806.04 1527.27 2803.7 1525.99 2801.23 1525L2791.29 1521.34C2787.48 1520.05 2783.75 1518.54 2780.13 1516.8C2776.54 1515.18 2773.1 1513.26 2769.84 1511.05C2766.54 1508.77 2763.6 1506.01 2761.12 1502.86C2758.4 1499.39 2756.28 1495.51 2754.84 1491.35C2753.21 1486.34 2752.44 1481.09 2752.58 1475.83C2752.49 1468.64 2753.92 1461.51 2756.76 1454.9C2759.41 1448.75 2763.47 1443.31 2768.62 1439.04C2774.19 1434.53 2780.59 1431.15 2787.45 1429.1C2795.48 1426.69 2803.83 1425.51 2812.21 1425.61C2819.14 1425.6 2826.07 1425.95 2832.96 1426.66C2840.17 1427.35 2846.68 1428.34 2852.49 1429.62L2853.01 1472.86Z" fill="#174481"/>
<path d="M2976.79 1428.4V1473.38H2948.2V1581.14L2899.9 1584.63V1473.21H2866.77L2877.05 1428.22L2976.79 1428.4Z" fill="#174481"/>
<path d="M3041.68 1581.33L2993.38 1584.81V1427.88L3041.68 1424.39V1581.33Z" fill="#174481"/>
<path d="M3223.17 1504.97C3223.21 1515.34 3221.32 1525.63 3217.59 1535.31C3213.95 1544.79 3208.43 1553.45 3201.38 1560.77C3194.03 1568.25 3185.25 1574.18 3175.57 1578.2C3153.49 1586.87 3128.95 1586.87 3106.87 1578.2C3097.3 1574.26 3088.64 1568.41 3081.41 1561C3074.19 1553.6 3068.55 1544.79 3064.84 1535.13C3057.27 1515.5 3057.27 1493.74 3064.84 1474.1C3068.55 1464.44 3074.19 1455.64 3081.41 1448.23C3088.64 1440.83 3097.3 1434.97 3106.87 1431.03C3129 1422.34 3153.61 1422.34 3175.74 1431.03C3185.3 1435.05 3193.94 1440.97 3201.14 1448.44C3208.33 1455.9 3213.93 1464.75 3217.59 1474.45C3221.35 1484.18 3223.25 1494.53 3223.17 1504.97ZM3141.22 1539.84C3145.83 1539.91 3150.4 1539.02 3154.65 1537.22C3158.65 1535.52 3162.26 1533.03 3165.28 1529.9C3168.29 1526.66 3170.66 1522.87 3172.26 1518.74C3174 1514.36 3174.88 1509.68 3174.87 1504.97C3174.92 1500.26 3174.09 1495.59 3172.43 1491.19C3170.87 1487.05 3168.5 1483.25 3165.46 1480.03C3162.4 1476.82 3158.72 1474.27 3154.65 1472.53C3150.33 1470.76 3145.71 1469.87 3141.05 1469.92C3136.55 1469.9 3132.11 1470.79 3127.97 1472.53C3123.94 1474.2 3120.32 1476.69 3117.33 1479.86C3114.26 1483.09 3111.83 1486.87 3110.18 1491.02C3108.4 1495.45 3107.51 1500.19 3107.57 1504.97C3107.56 1509.68 3108.44 1514.36 3110.18 1518.74C3111.78 1522.87 3114.14 1526.66 3117.16 1529.9C3120.17 1533.04 3123.79 1535.53 3127.79 1537.22C3132.04 1539.01 3136.61 1539.9 3141.22 1539.84ZM3186.9 1384.48L3148.89 1417.43H3118.38L3140.7 1384.48H3186.9Z" fill="#174481"/>
<path d="M3377.86 1581.33H3332.35L3286.66 1507.57V1581.33L3240.28 1584.81V1427.88H3287.01L3331.3 1500.94V1427.88L3377.69 1424.39L3377.86 1581.33Z" fill="#174481"/>
<path d="M3512.83 1428.39C3524.76 1428.16 3536.61 1430.29 3547.71 1434.67C3557.31 1438.66 3565.97 1444.6 3573.17 1452.11C3579.93 1459.11 3585.21 1467.42 3588.69 1476.52C3592.26 1485.69 3594.1 1495.45 3594.09 1505.29C3594.2 1515.91 3592.25 1526.45 3588.34 1536.33C3584.79 1545.43 3579.38 1553.69 3572.44 1560.57C3565.5 1567.45 3557.19 1572.8 3548.06 1576.26C3538.16 1580.06 3527.62 1581.95 3517.02 1581.84H3461.92V1428.92L3512.83 1428.39ZM3510.39 1537.55H3515.45C3519.83 1537.59 3524.17 1536.7 3528.18 1534.93C3531.78 1533.38 3535.04 1531.12 3537.77 1528.31C3540.41 1525.5 3542.43 1522.18 3543.7 1518.54C3544.98 1514.84 3545.63 1510.95 3545.62 1507.03C3545.98 1502.36 3545.33 1497.66 3543.71 1493.27C3542.09 1488.87 3539.53 1484.87 3536.22 1481.56C3532.9 1478.24 3528.91 1475.69 3524.51 1474.06C3520.11 1472.44 3515.41 1471.79 3510.74 1472.16L3510.39 1537.55Z" fill="#174481"/>
<path d="M3694.54 1428.42L3704.13 1469.4H3657.92V1484.57H3687.91V1522.76H3657.92V1538.97H3707.44L3697.68 1581.34H3610.49V1428.42H3694.54Z" fill="#174481"/>
<path d="M3769.31 1536.32H3821.62L3811.34 1581.3H3720.49V1428.38L3768.79 1424.89L3769.31 1536.32Z" fill="#174481"/>
<path d="M3946.33 1428.39C3958.25 1428.16 3970.11 1430.29 3981.2 1434.67C3990.8 1438.66 3999.47 1444.6 4006.66 1452.11C4013.43 1459.11 4018.7 1467.42 4022.18 1476.52C4025.76 1485.69 4027.59 1495.45 4027.58 1505.29C4027.69 1515.91 4025.74 1526.45 4021.83 1536.33C4018.29 1545.43 4012.87 1553.69 4005.93 1560.57C3998.99 1567.45 3990.69 1572.8 3981.55 1576.26C3971.65 1580.06 3961.12 1581.95 3950.51 1581.84H3895.41V1428.92L3946.33 1428.39ZM3943.89 1537.55H3948.94C3953.32 1537.59 3957.66 1536.7 3961.67 1534.93C3965.27 1533.38 3968.53 1531.12 3971.26 1528.31C3973.9 1525.5 3975.92 1522.18 3977.19 1518.54C3978.47 1514.84 3979.12 1510.95 3979.11 1507.03C3979.48 1502.36 3978.83 1497.66 3977.2 1493.27C3975.58 1488.87 3973.02 1484.87 3969.71 1481.56C3966.39 1478.24 3962.4 1475.69 3958 1474.06C3953.6 1472.44 3948.91 1471.79 3944.23 1472.16L3943.89 1537.55Z" fill="#174481"/>
<path d="M4201.38 1504.93C4201.41 1515.31 4199.52 1525.59 4195.8 1535.27C4192.16 1544.76 4186.64 1553.42 4179.59 1560.73C4172.24 1568.21 4163.46 1574.14 4153.78 1578.17C4131.7 1586.86 4107.16 1586.86 4085.08 1578.17C4075.51 1574.23 4066.85 1568.38 4059.62 1560.97C4052.4 1553.56 4046.76 1544.76 4043.05 1535.1C4035.49 1515.46 4035.49 1493.71 4043.05 1474.07C4046.76 1464.41 4052.4 1455.61 4059.62 1448.2C4066.85 1440.8 4075.51 1434.94 4085.08 1431C4107.21 1422.3 4131.82 1422.3 4153.95 1431C4163.64 1435.02 4172.42 1440.95 4179.76 1448.44C4186.81 1455.82 4192.32 1464.54 4195.98 1474.07C4199.71 1483.92 4201.55 1494.4 4201.38 1504.93ZM4119.43 1539.81C4124.04 1539.87 4128.61 1538.98 4132.86 1537.19C4136.86 1535.5 4140.48 1533.01 4143.49 1529.87C4146.5 1526.63 4148.87 1522.84 4150.47 1518.71C4152.21 1514.33 4153.09 1509.65 4153.08 1504.93C4153.14 1500.23 4152.31 1495.56 4150.64 1491.16C4149.08 1487.01 4146.71 1483.22 4143.67 1480C4140.61 1476.79 4136.93 1474.24 4132.86 1472.5C4128.54 1470.73 4123.92 1469.84 4119.25 1469.89C4114.76 1469.87 4110.32 1470.76 4106.18 1472.5C4102.15 1474.16 4098.53 1476.66 4095.54 1479.82C4089.18 1486.63 4085.69 1495.62 4085.78 1504.93C4085.76 1509.65 4086.64 1514.33 4088.39 1518.71C4089.99 1522.84 4092.35 1526.63 4095.37 1529.87C4098.37 1533.01 4101.99 1535.51 4106 1537.19C4110.2 1538.96 4114.71 1539.85 4119.25 1539.81H4119.43Z" fill="#174481"/>
<path d="M4322.28 1474.95C4318.3 1473.25 4314.22 1471.79 4310.07 1470.59C4305.91 1469.57 4301.63 1469.1 4297.34 1469.2C4287.12 1468.6 4277.06 1471.97 4269.27 1478.61C4265.82 1481.87 4263.12 1485.82 4261.34 1490.22C4259.57 1494.61 4258.76 1499.34 4258.98 1504.07C4258.89 1509.05 4259.9 1514 4261.94 1518.54C4263.88 1522.73 4266.67 1526.47 4270.14 1529.53C4273.6 1532.59 4277.63 1534.96 4282 1536.5C4286.7 1538.17 4291.65 1538.99 4296.64 1538.94C4301.52 1538.99 4306.39 1538.41 4311.12 1537.2C4315.58 1535.97 4319.86 1534.15 4323.84 1531.79L4317.39 1580.44C4312.87 1581.65 4308.27 1582.53 4303.62 1583.06C4298.82 1583.64 4293.98 1583.93 4289.14 1583.93C4278.51 1584.04 4267.96 1582.02 4258.11 1578C4248.78 1574.2 4240.3 1568.56 4233.17 1561.44C4225.75 1554.37 4219.82 1545.89 4215.73 1536.5C4211.63 1526.61 4209.56 1516 4209.63 1505.29C4209.54 1494.07 4211.61 1482.94 4215.73 1472.51C4219.51 1462.84 4225.26 1454.07 4232.62 1446.74C4239.97 1439.42 4248.77 1433.7 4258.46 1429.96C4269.06 1425.81 4280.37 1423.74 4291.76 1423.86C4295.61 1423.83 4299.46 1424.12 4303.27 1424.73L4313.21 1427L4322.28 1474.95Z" fill="#174481"/>
<path d="M4387.8 1529.17C4387.76 1532.15 4388.48 1535.09 4389.89 1537.71C4391.29 1540.04 4394.19 1541.2 4398.61 1541.2C4400.42 1541.31 4402.22 1540.95 4403.84 1540.15C4405.08 1539.45 4406.11 1538.43 4406.81 1537.19C4407.48 1536.01 4407.9 1534.7 4408.03 1533.35C4408.1 1532.02 4408.1 1530.68 4408.03 1529.34V1428.38L4456.33 1424.89V1532.48C4456.74 1539.71 4455.53 1546.94 4452.78 1553.63C4450.04 1560.33 4445.83 1566.33 4440.46 1571.19C4427.14 1581.17 4410.69 1586.05 4394.08 1584.96C4386.18 1585.07 4378.33 1583.78 4370.89 1581.13C4364.39 1578.85 4358.45 1575.23 4353.45 1570.49C4348.77 1565.92 4345.14 1560.39 4342.81 1554.28C4340.29 1547.53 4339.05 1540.38 4339.15 1533.18V1428.55L4387.45 1425.07L4387.8 1529.17Z" fill="#174481"/>
<path d="M4532.17 1428.42L4553.27 1485.09L4574.19 1428.42H4618.13L4637.14 1581.34L4588.84 1584.83L4581.86 1512.64L4552.74 1588.84L4524.32 1512.82L4516.3 1584.83L4469.22 1581.34L4489.1 1428.42H4532.17Z" fill="#174481"/>
<path d="M4734.44 1428.42L4744.03 1469.4H4697.82V1484.57H4727.81V1522.76H4697.82V1538.97H4747.34L4737.93 1581.34H4650.74V1428.42H4734.44Z" fill="#174481"/>
<path d="M4899.91 1581.33H4854.4L4808.71 1507.57V1581.33L4762.33 1584.81V1427.88H4809.06L4853.35 1500.94V1427.88L4899.74 1424.39L4899.91 1581.33Z" fill="#174481"/>
<path d="M5019.91 1428.4V1473.38H4991.31V1581.14L4943.01 1584.63V1473.21H4909.88L4920.17 1428.22L5019.91 1428.4Z" fill="#174481"/>
<path d="M5191.29 1504.93C5191.33 1515.31 5189.43 1525.59 5185.71 1535.27C5182.07 1544.76 5176.55 1553.42 5169.49 1560.73C5162.15 1568.21 5153.37 1574.14 5143.69 1578.17C5121.61 1586.84 5097.07 1586.84 5074.99 1578.17C5065.42 1574.23 5056.76 1568.38 5049.53 1560.97C5042.31 1553.56 5036.67 1544.76 5032.96 1535.1C5025.38 1515.46 5025.38 1493.71 5032.96 1474.07C5036.67 1464.41 5042.31 1455.61 5049.53 1448.2C5056.76 1440.8 5065.42 1434.94 5074.99 1431C5097.12 1422.3 5121.73 1422.3 5143.86 1431C5153.42 1435.02 5162.06 1440.94 5169.25 1448.4C5176.45 1455.87 5182.05 1464.72 5185.71 1474.42C5189.47 1484.15 5191.36 1494.5 5191.29 1504.93ZM5109.34 1539.81C5113.94 1539.87 5118.52 1538.98 5122.76 1537.19C5126.76 1535.49 5130.38 1533 5133.4 1529.87C5136.41 1526.63 5138.78 1522.84 5140.37 1518.71C5142.11 1514.33 5143 1509.65 5142.99 1504.93C5143.04 1500.23 5142.21 1495.56 5140.55 1491.16C5138.99 1487.01 5136.61 1483.22 5133.57 1480C5130.52 1476.79 5126.84 1474.24 5122.76 1472.5C5118.45 1470.73 5113.82 1469.84 5109.16 1469.89C5104.67 1469.87 5100.22 1470.76 5096.08 1472.5C5092.06 1474.16 5088.44 1476.66 5085.45 1479.82C5082.37 1483.05 5079.95 1486.84 5078.3 1490.98C5076.52 1495.42 5075.63 1500.16 5075.68 1504.93C5075.67 1509.65 5076.56 1514.33 5078.3 1518.71C5079.89 1522.84 5082.26 1526.63 5085.27 1529.87C5088.29 1533.01 5091.91 1535.5 5095.91 1537.19C5100.27 1539.02 5104.96 1539.91 5109.69 1539.81H5109.34Z" fill="#174481"/>
</svg>
